<?xml version="1.0" encoding="UTF-8" standalone="no"?>
<svg
   data-v-423bf9ae=""
   viewBox="0 0 487 90"
   class="iconLeft"
   version="1.1"
   id="svg8"
   sodipodi:docname="default-monochrome-white.svg"
   inkscape:version="1.2.1 (9c6d41e410, 2022-07-14)"
   xmlns:inkscape="http://www.inkscape.org/namespaces/inkscape"
   xmlns:sodipodi="http://sodipodi.sourceforge.net/DTD/sodipodi-0.dtd"
   xmlns="http://www.w3.org/2000/svg"
   xmlns:svg="http://www.w3.org/2000/svg">
  <defs
     id="defs12" />
  <sodipodi:namedview
     id="namedview10"
     pagecolor="#505050"
     bordercolor="#ffffff"
     borderopacity="1"
     inkscape:showpageshadow="0"
     inkscape:pageopacity="0"
     inkscape:pagecheckerboard="1"
     inkscape:deskcolor="#505050"
     showgrid="false"
     inkscape:zoom="2.5749487"
     inkscape:cx="244.08254"
     inkscape:cy="45.049442"
     inkscape:window-width="2560"
     inkscape:window-height="1385"
     inkscape:window-x="558"
     inkscape:window-y="1432"
     inkscape:window-maximized="1"
     inkscape:current-layer="svg8" />
  <!---->
  <!---->
  <!---->
  <g
     data-v-423bf9ae=""
     id="c433ed99-4063-4002-94c5-8179f167c05b"
     fill="white"
     transform="matrix(5.639097562403148,0,0,5.639097562403148,108.5491996937302,-4.285715524159237)">
    <path
       d="M6.40 14.06C7.67 14.06 8.32 13.40 8.32 12.08L8.32 10.26C8.32 9.42 7.95 8.92 7.11 8.74C7.91 8.60 8.29 8.05 8.29 7.08L8.29 5.40C8.29 4.07 7.64 3.42 6.36 3.42L0.62 3.42L0.62 14.06ZM5.91 11.03C5.91 11.31 5.77 11.45 5.49 11.45L3.04 11.45L3.04 9.80L5.49 9.80C5.77 9.80 5.91 9.94 5.91 10.22ZM5.91 7.24C5.91 7.52 5.77 7.66 5.49 7.66L3.04 7.66L3.04 6.02L5.49 6.02C5.77 6.02 5.91 6.16 5.91 6.44ZM12.84 14.06C14.11 14.06 14.76 13.44 14.76 12.19L14.76 3.42L12.33 3.42L12.33 10.96C12.33 11.24 12.19 11.38 11.91 11.38L9.14 11.38L9.14 14.06ZM19.33 14.06C20.61 14.06 21.25 13.44 21.25 12.19L21.25 3.42L18.83 3.42L18.83 10.96C18.83 11.24 18.69 11.38 18.41 11.38L15.64 11.38L15.64 14.06ZM29.15 14.06L29.15 9.91L32.20 9.91L32.20 7.56L29.15 7.56L29.15 6.05L33.22 6.05L33.22 3.42L26.71 3.42L26.71 14.06ZM39.31 10.96C39.31 11.24 39.17 11.38 38.89 11.38L36.88 11.38C36.60 11.38 36.46 11.24 36.46 10.96L36.46 6.51C36.46 6.23 36.60 6.09 36.88 6.09L38.89 6.09C39.17 6.09 39.31 6.23 39.31 6.51ZM39.80 14.06C41.09 14.06 41.72 13.44 41.72 12.19L41.72 5.36C41.72 4.06 41.09 3.42 39.80 3.42L35.95 3.42C34.68 3.42 34.03 4.06 34.03 5.36L34.03 12.19C34.03 13.44 34.68 14.06 35.95 14.06ZM49.46 14.06L49.46 11.38L45.68 11.38C45.40 11.38 45.26 11.24 45.26 10.96L45.26 6.51C45.26 6.23 45.40 6.09 45.68 6.09L49.43 6.09L49.43 3.42L44.76 3.42C43.48 3.42 42.84 4.06 42.84 5.36L42.84 12.19C42.84 13.44 43.48 14.06 44.76 14.06ZM56.22 14.06C57.53 14.06 58.18 13.44 58.18 12.19L58.18 3.42L55.78 3.42L55.78 10.96C55.78 11.24 55.64 11.38 55.36 11.38L53.16 11.38C52.88 11.38 52.74 11.24 52.74 10.96L52.74 3.42L50.32 3.42L50.32 12.19C50.32 13.44 50.97 14.06 52.28 14.06ZM64.92 14.06C66.28 14.06 66.95 13.37 66.95 11.98L66.95 9.49C66.95 8.25 66.33 7.62 65.09 7.62L62.17 7.62C61.89 7.62 61.75 7.48 61.75 7.20L61.75 6.51C61.75 6.23 61.89 6.09 62.17 6.09L66.71 6.09L66.71 3.42L61.22 3.42C59.96 3.42 59.33 4.09 59.33 5.45L59.33 7.98C59.33 9.23 59.99 9.84 61.29 9.84L64.12 9.84C64.40 9.84 64.54 9.98 64.54 10.26L64.54 10.96C64.54 11.24 64.40 11.38 64.12 11.38L59.35 11.38L59.35 14.06Z"
       id="path2" />
  </g>
  <!---->
  <g
     data-v-423bf9ae=""
     id="e66c23f5-86d8-456f-adbd-27be1ac377b8"
     transform="matrix(1.0227272727272727,0,0,1.0227272727272727,-4.136363636363633,-6.136363636363633)"
     stroke="none"
     fill="white"
     style="fill:#d8c93b;fill-opacity:1">
    <path
       d="M92.4 63.6L52.7 10.4 49.4 6l-3.2 4.5L7.6 65.4 5 69.1l4.1 2.1L51 92.9l2 1.1 2-1.3 36.4-23.4L95 67l-2.6-3.4zm-23-24.2l-18 18v-1.1l17.5-17.5.5.6zm-1.8-2.3L51.3 53.5v-1.1l15.9-15.9.4.6zm-12-16l-5.5 5.5v-1.1l5.1-5.1.4.7zm-6.1-7.2l.4-.4.5.7-.9.9v-1.2zm.2 3.9l2-2-.6-.8 1.1 1.5-2.4 2.4-.1-1.1zm3.7.3l.5.7-4 4v-1.1l3.5-3.6zm-3.2 11.2l6.6-6.6.5.7-7.1 7.1v-1.2zm.2 3.9l8.2-8.2.5.7-8.6 8.6-.1-1.1zm.1 3.8l9.7-9.7.5.7-10.1 10.1-.1-1.1zm.2 3.8L62 29.6l.5.7L50.7 42v-1.2zm.2 5v-1.1l12.8-12.8.5.7-13.3 13.2zm.1 2.7l14.4-14.4.5.7-14.8 14.9-.1-1.2zm.5 11.6l19-19 .5.7-19.4 19.4-.1-1.1zm.2 3.8l20.6-20.6.5.7-21 21-.1-1.1zm.2 3.9L74 45.6l.5.7-22.6 22.6v-1.1zm.1 3.8l23.7-23.7.5.7-24.1 24.1-.1-1.1zm.2 3.9l25.2-25.2.5.7-25.6 25.6-.1-1.1zm.2 3.8l26.8-26.8.5.7-27.3 27.2v-1.1zm.2 3.9l28.3-28.3.5.7-28.8 28.7v-1.1zm.2 4.9V87l29.9-29.9.5.7-30.4 30.3zm4.4-1.5l27.2-27.2.5.7-24.5 24.4-3.2 2.1zm11.2-7.3L86 61.7l.5.7-14.8 14.8-3.3 2.1zM82.9 70l-3.3 2.1 8.1-8.1.5.7-5.3 5.3z"
       id="path5"
       style="fill:#d8c93b;fill-opacity:1" />
  </g>
  <!---->
</svg>
